<?xml version="1.0" encoding="utf-8"?>
<!-- Generator: Adobe Illustrator 19.2.1, SVG Export Plug-In . SVG Version: 6.00 Build 0)  -->
<svg version="1.1" xmlns="http://www.w3.org/2000/svg" xmlns:xlink="http://www.w3.org/1999/xlink" x="0px" y="0px"
	 viewBox="0 0 800 800" style="enable-background:new 0 0 800 800;" xml:space="preserve">
<style type="text/css">
	.st0{fill:#99CCEE;}
	.st1{fill:#FFFFFF;}
	.st2{display:none;}
</style>
<g id="Layer_1">
	<g>
		<rect class="st0" width="800" height="800"/>
		<path class="st1" d="M150.528,470.85c12.364-13.848,21.17-30.938,24.993-49.835c9.865,48.803,52.992,85.547,104.704,85.547
			c51.717,0,94.85-36.752,104.708-85.564v85.564h35.403V378.8l71.425,71.422l71.114-71.422v127.761h36.018v-85.564
			c9.86,48.812,52.99,85.564,104.708,85.564c42.495,0,79.192-24.814,96.399-60.742v-92.171
			c-17.207-35.928-53.904-60.741-96.399-60.741c-51.718,0-94.848,36.751-104.708,85.564v-85.564L491.761,399.732L384.933,292.907
			v85.564c-9.858-48.812-52.991-85.564-104.708-85.564c-51.711,0-94.838,36.743-104.704,85.546
			c-3.822-18.897-12.627-35.986-24.991-49.834c-19.564-21.912-48.023-35.712-79.708-35.712H0v213.654h70.822
			C102.506,506.561,130.964,492.761,150.528,470.85z M703.601,328.451c39.367,0,71.284,31.914,71.284,71.282
			c0,39.369-31.917,71.283-71.284,71.283c-39.369,0-71.283-31.914-71.283-71.283C632.318,360.366,664.232,328.451,703.601,328.451z
			 M280.225,328.451c39.368,0,71.284,31.914,71.284,71.282c0,39.369-31.915,71.283-71.284,71.283
			c-39.368,0-71.283-31.914-71.283-71.283C208.942,360.366,240.856,328.451,280.225,328.451z M35.403,328.62h40.084
			c37.191,2.406,66.617,33.315,66.617,71.114c0,37.809-29.44,68.724-66.644,71.116H35.403V328.62z"/>
	</g>
</g>
<g id="Layer_2" class="st2">
</g>
</svg>
