<svg width="602" height="132" viewBox="0 0 602 132" fill="none" xmlns="http://www.w3.org/2000/svg">
<path d="M364.476 99.8873V93.6789C360.852 98.168 355.034 100.365 347.691 100.365C336.723 100.365 329.856 93.5834 329.856 84.6051C329.856 75.3402 336.818 69.4184 349.026 69.3229H364.381V67.7946C364.381 61.3952 360.28 58.2493 352.268 58.2493C347.404 58.2493 342.35 59.9685 337.295 63.407L332.812 55.7659C339.87 51.5633 345.02 49.3665 354.653 49.3665C367.719 49.3665 375.063 56.0525 375.158 67.2276L375.253 99.8873H364.476ZM349.979 91.6731C357.8 91.6731 363.809 87.566 364.381 82.0262V77.346H350.647C343.494 77.346 340.156 79.2563 340.156 84.1275C340.156 88.7122 343.876 91.6731 349.979 91.6731Z" fill="white"/>
<path d="M304.507 49.3665C316.333 49.3665 323.391 56.8166 323.391 68.9468V99.8873H312.423V71.3287C312.423 63.6876 307.845 59.682 300.215 59.682C291.823 59.7775 285.814 65.7004 285.814 73.5315V99.8873H274.846V49.7486H285.814V59.491C289.438 52.423 295.924 49.3665 304.507 49.3665Z" fill="white"/>
<path d="M270.895 49.9727L249.386 104.61C246.107 112.923 240.517 116.645 232.887 116.645C228.309 116.645 224.685 115.308 221.156 112.347L225.829 103.846C228.214 105.565 230.121 106.33 232.41 106.33C235.748 106.33 239.034 103.478 240.505 99.3473L219.747 49.9727H231.097L246.036 87.7901L259.927 49.9727H270.895Z" fill="white"/>
<path d="M157.191 33.2524H184.563C204.591 33.2524 219.088 47.068 219.088 66.4573C219.088 85.7511 204.496 99.8871 184.277 99.8871H157.191V33.2524ZM168.445 43.3768V89.7626H184.849C197.82 89.7626 207.738 80.1157 207.738 66.5528C207.738 52.8943 197.533 43.3768 184.372 43.3768H168.445Z" fill="white"/>
<path d="M599.234 88.0096L602 96.4148C597.994 98.8027 593.798 100.14 589.506 100.14C581.876 100.14 575.295 95.7463 575.295 85.3353V58.074H568.142V49.8598H575.295V37.0392H586.168V49.8598H601.142V58.074H586.168V83.3295C586.168 88.5827 588.171 90.2065 591.604 90.2065C593.893 90.2065 596.277 89.4423 599.234 88.0096Z" fill="white"/>
<path d="M543.036 49.3665C560.87 49.3665 568.119 60.3446 566.784 78.6832H528.444C530.16 86.5153 536.169 91.3865 544.18 91.3865C549.712 91.3865 554.767 89.2852 558.486 85.4647L564.304 91.6731C559.344 97.1174 552.096 100.269 543.322 100.269C527.681 100.269 517.38 89.8583 517.38 74.5761C517.38 59.1984 527.967 49.462 543.036 49.3665ZM528.253 70.6601H557.246C556.865 62.4459 551.428 58.1538 543.131 58.1538C535.12 58.1538 529.493 62.5414 528.253 70.6601Z" fill="white"/>
<path d="M488.317 49.3665C506.152 49.3665 513.4 60.3446 512.065 78.6832H473.725C475.441 86.5153 481.45 91.3865 489.461 91.3865C494.993 91.3865 500.048 89.2852 503.767 85.4647L509.585 91.6731C504.626 97.1174 497.377 100.269 488.603 100.269C472.962 100.269 462.661 89.8583 462.661 74.5761C462.661 59.1984 473.248 49.462 488.317 49.3665ZM473.534 70.6601H502.527C502.146 62.4459 496.71 58.1538 488.412 58.1538C480.401 58.1538 474.774 62.5414 473.534 70.6601Z" fill="white"/>
<path d="M456.291 99.8416H445.895L445.799 49.8879L424.722 92.8691H417.378L396.301 49.8879V99.8416H385.714V33.2069H399.067L421.098 77.3959L443.034 33.2069H456.291V99.8416Z" fill="white"/>
<path d="M76.3895 37.3787C79.647 31.7643 81.6264 24.7022 81.6264 19.1047C81.6264 7.9361 74.02 0 65.9101 0C57.8002 0 50.1938 7.9361 50.1938 19.1047C50.1938 24.7022 52.1731 31.7643 55.4307 37.3787C58.8353 43.2466 62.7279 46.09 65.9101 46.09C69.0923 46.09 72.9848 43.2466 76.3895 37.3787Z" fill="#07CB79"/>
<path d="M39.404 21.7591C42.0889 24.448 44.6224 29.3068 45.5845 34.3651C46.5865 39.6327 45.5511 42.9517 44.1071 44.3978C42.6632 45.8439 39.349 46.8807 34.0891 45.8773C29.0383 44.9138 24.1866 42.3766 21.5017 39.6877C16.5581 34.7369 16.5581 26.71 21.5017 21.7591C26.4453 16.8083 34.4604 16.8083 39.404 21.7591Z" fill="#07CB79"/>
<path d="M110.351 39.6892C107.666 42.378 102.815 44.9153 97.7638 45.8788C92.5039 46.8822 89.1898 45.8453 87.7458 44.3992C86.3018 42.9531 85.2665 39.6341 86.2684 34.3665C87.2305 29.3083 89.764 24.4494 92.449 21.7606C97.3926 16.8097 105.408 16.8097 110.351 21.7606C115.295 26.7114 115.295 34.7383 110.351 39.6892Z" fill="#07CB79"/>
<path d="M86.2728 98.1783C87.2349 103.236 89.7684 108.095 92.4533 110.784C97.3969 115.735 105.412 115.735 110.356 110.784C115.299 105.833 115.299 97.8065 110.356 92.8556C107.671 90.1667 102.819 87.6295 97.7681 86.666C92.5083 85.6626 89.1941 86.6995 87.7501 88.1456C86.3062 89.5917 85.2708 92.9106 86.2728 98.1783Z" fill="#07CB79"/>
<path d="M21.5003 92.4059C24.1852 89.717 29.037 87.1798 34.0878 86.2163C39.3477 85.2129 42.6618 86.2498 44.1058 87.6959C45.5498 89.142 46.5851 92.461 45.5832 97.7286C44.6211 102.787 42.0875 107.646 39.4026 110.335C34.459 115.285 26.4439 115.285 21.5003 110.335C16.5567 105.384 16.5567 97.3568 21.5003 92.4059Z" fill="#07CB79"/>
<path d="M112.664 81.3592C107.062 81.3592 100.002 79.404 94.3934 76.1914C88.5136 72.8232 85.7187 68.9987 85.7187 65.9287C85.7187 62.8588 88.5136 59.0342 94.3934 55.6661C100.002 52.4534 107.062 50.4983 112.664 50.4983C123.88 50.4983 131.741 58.0315 131.741 65.9287C131.741 73.8259 123.88 81.3592 112.664 81.3592Z" fill="#07CB79"/>
<path d="M55.7418 94.5881C52.5533 100.206 50.6116 107.279 50.6116 112.895C50.6116 124.153 58.1009 132 65.8987 132C73.6966 132 81.1859 124.153 81.1859 112.895C81.1859 107.279 79.2442 100.206 76.0557 94.5881C72.7086 88.6913 68.9184 85.91 65.8987 85.91C62.8791 85.91 59.0889 88.6913 55.7418 94.5881Z" fill="#07CB79"/>
<path d="M19.0767 50.4983C24.6792 50.4983 31.7393 52.4535 37.3477 55.6662C43.2275 59.0343 46.0224 62.8589 46.0224 65.9288C46.0224 68.9988 43.2275 72.8233 37.3477 76.1914C31.7393 79.4041 24.6792 81.3593 19.0767 81.3593C7.86088 81.3593 -1.03407e-06 73.826 0 65.9288C1.03407e-06 58.0316 7.86089 50.4983 19.0767 50.4983Z" fill="#07CB79"/>
</svg>
